<svg width="16" height="13" viewBox="0 0 16 13" fill="none" xmlns="http://www.w3.org/2000/svg">
<path d="M2.65435 0H0.0633246L3.38259 5.54667L0 11.0933H2.61741L4.83377 7.30708H4.91821L7.13457 11.0933H9.76253L6.3905 5.54667L9.68866 0H7.10818L4.91821 3.78083H4.83377L2.65435 0Z" fill="#242424"/>
<path d="M10.8443 13H16V11.6458H13.1768V11.5863L14.1161 10.8713C15.3668 10.0154 15.9261 9.31667 15.9261 8.36333C15.9261 7.1825 14.9129 6.26167 13.3404 6.26167C11.81 6.26167 10.7124 7.09583 10.7124 8.48792H12.2691C12.2691 7.8975 12.686 7.5725 13.3193 7.5725C13.9103 7.5725 14.3852 7.865 14.3852 8.385C14.3852 8.88333 14.0053 9.20292 13.4142 9.69583L10.8443 11.8029V13Z" fill="#242424"/>
</svg>
