<svg width="16" height="13" viewBox="0 0 16 13" fill="none" xmlns="http://www.w3.org/2000/svg">
<path d="M2.65435 1.26102H0.0633246L3.38259 7.13051L0 13H2.61741L4.83377 8.99339H4.91821L7.13457 13H9.76253L6.3905 7.13051L9.68866 1.26102H7.10818L4.91821 5.2619H4.83377L2.65435 1.26102Z" fill="#242424"/>
<path d="M10.8443 7.13051H16V5.69753H13.1768V5.63448L14.1161 4.87787C15.3668 3.97222 15.9261 3.2328 15.9261 2.22399C15.9261 0.974427 14.9129 0 13.3404 0C11.81 0 10.7124 0.882716 10.7124 2.35582H12.2691C12.2691 1.73104 12.686 1.38713 13.3193 1.38713C13.9103 1.38713 14.3852 1.69665 14.3852 2.24691C14.3852 2.77425 14.0053 3.11243 13.4142 3.63404L10.8443 5.86376V7.13051Z" fill="#242424"/>
</svg>
