<svg width="14" height="13" viewBox="0 0 14 13" fill="none" xmlns="http://www.w3.org/2000/svg">
<path d="M9.26543 3.81045H11.8272C11.7901 1.55629 9.93827 0 7.12346 0C4.35185 0 2.32099 1.53159 2.33333 3.82898C2.32716 5.69406 3.64198 6.76247 5.77778 7.27506L7.15432 7.6209C8.53087 7.95439 9.2963 8.34964 9.30247 9.2019C9.2963 10.1283 8.41975 10.7582 7.06173 10.7582C5.67284 10.7582 4.67284 10.1159 4.58642 8.84988H2C2.0679 11.5857 4.02469 13 7.09259 13C10.179 13 11.9938 11.524 12 9.20808C11.9938 7.10214 10.4074 5.98432 8.20988 5.49026L7.07407 5.21853C5.97531 4.96532 5.05556 4.55772 5.07407 3.64988C5.07407 2.83468 5.7963 2.23563 7.10494 2.23563C8.38272 2.23563 9.16667 2.81615 9.26543 3.81045Z" fill="#242424"/>
<rect y="6" width="14" height="1" fill="#242424"/>
</svg>
