<svg width="32" height="32" viewBox="0 0 32 32" fill="none" xmlns="http://www.w3.org/2000/svg">
<g opacity="0.5">
<rect x="13" y="9" width="11" height="2" fill="#242424"/>
<rect x="13" y="15" width="11" height="2" fill="#242424"/>
<rect x="13" y="21" width="11" height="2" fill="#242424"/>
<rect x="0.5" y="0.5" width="31" height="31" stroke="#242424"/>
<path d="M11 8H10.1094L9 8.62695V9.37695L10.0263 8.80273H10.0525V12H11V8Z" fill="#242424"/>
<path d="M9.04055 18H12V17.3179H10.2568V17.2909L10.8628 16.7264C11.7162 15.9865 11.9453 15.6166 11.9453 15.1676C11.9453 14.4836 11.3574 14 10.4676 14C9.59595 14 8.99798 14.4952 9.00001 15.2697H9.83311C9.83108 14.8921 10.0824 14.6609 10.4615 14.6609C10.8264 14.6609 11.098 14.8767 11.098 15.2235C11.098 15.5376 10.8953 15.7534 10.5182 16.0983L9.04055 17.3988V18Z" fill="#242424"/>
<path d="M10.4895 24C11.3712 24 12.0019 23.519 12 22.8536C12.0019 22.3688 11.6914 22.0228 11.1144 21.9506V21.9202C11.5533 21.8422 11.8562 21.5342 11.8543 21.097C11.8562 20.4829 11.3137 20 10.501 20C9.69584 20 9.0901 20.4677 9.07859 21.1407H9.87412C9.8837 20.8441 10.1578 20.6521 10.4971 20.6521C10.8326 20.6521 11.0569 20.8536 11.0549 21.1464C11.0569 21.4525 10.7942 21.6597 10.4166 21.6597H10.0505V22.2643H10.4166C10.8613 22.2643 11.1393 22.4848 11.1374 22.7985C11.1393 23.1084 10.8709 23.3213 10.4914 23.3213C10.1252 23.3213 9.85112 23.1312 9.83578 22.846H9C9.01342 23.5266 9.62684 24 10.4895 24Z" fill="#242424"/>
</g>
</svg>
