<svg width="10" height="13" viewBox="0 0 10 13" fill="none" xmlns="http://www.w3.org/2000/svg">
<path d="M0 13H5.53797C8.44937 13 10 11.4766 10 9.40723C10 7.48389 8.62658 6.32227 7.1519 6.25244V6.12549C8.5 5.8208 9.49367 4.86231 9.49367 3.33252C9.49367 1.38379 8.05063 0 5.18987 0H0V13ZM2.74051 10.7529V7.2998H5.03797C6.35443 7.2998 7.17089 8.06152 7.17089 9.13428C7.17089 10.1118 6.50633 10.7529 4.97468 10.7529H2.74051ZM2.74051 5.43994V2.22168H4.82279C6.03797 2.22168 6.72785 2.8501 6.72785 3.78955C6.72785 4.81787 5.89241 5.43994 4.77215 5.43994H2.74051Z" fill="#242424"/>
</svg>
