<svg width="12" height="13" viewBox="0 0 12 13" fill="none" xmlns="http://www.w3.org/2000/svg">
<path d="M5.63314 13V11.3622C4.29809 11.3622 4.0277 10.8949 4.0277 9.90403V8.40482C4.0277 7.61414 3.65591 6.90561 2.0223 6.60269V6.39731C3.65591 6.09439 4.0277 5.38586 4.0277 4.60032V3.10111C4.0277 2.10506 4.29809 1.63784 5.63314 1.63784V0.00513444C3.35735 0.00513444 1.72937 0.349131 1.72937 2.88033V4.01501C1.72937 5.06754 1.29562 5.51422 0 5.51422V7.48578C1.29562 7.48578 1.72937 7.93246 1.72937 8.98499V10.1248C1.72937 12.656 3.35735 13 5.63314 13Z" fill="#242424"/>
<path d="M6.36686 0V1.63784C7.70191 1.63784 7.9723 2.10506 7.9723 3.09597V4.59518C7.9723 5.38586 8.34409 6.09439 9.9777 6.39731V6.60269C8.34409 6.90561 7.9723 7.61414 7.9723 8.39968V9.89889C7.9723 10.8949 7.70191 11.3622 6.36686 11.3622V12.9949C8.64265 12.9949 10.2706 12.6509 10.2706 10.1197V8.98499C10.2706 7.93246 10.7044 7.48578 12 7.48578V5.51422C10.7044 5.51422 10.2706 5.06754 10.2706 4.01501V2.8752C10.2706 0.343997 8.64265 0 6.36686 0Z" fill="#242424"/>
</svg>
